<svg width="911" height="1153" viewBox="0 0 911 1153" class="keymap" xmlns="http://www.w3.org/2000/svg" xmlns:xlink="http://www.w3.org/1999/xlink">
<style>/* inherit to force styles through use tags */
svg path {
    fill: inherit;
}

/* font and background color specifications */
svg.keymap {
    font-family: SFMono-Regular,Consolas,Liberation Mono,Menlo,monospace;
    font-size: 14px;
    font-kerning: normal;
    text-rendering: optimizeLegibility;
    fill: #24292e;
}

/* default key styling */
rect.key {
    fill: #f6f8fa;
}

rect.key, rect.combo {
    stroke: #c9cccf;
    stroke-width: 1;
}

/* default key side styling, only used is draw_key_sides is set */
rect.side {
    filter: brightness(90%);
}

/* color accent for combo boxes */
rect.combo, rect.combo-separate {
    fill: #cdf;
}

/* color accent for held keys */
rect.held, rect.combo.held {
    fill: #fdd;
}

/* color accent for ghost (optional) keys */
rect.ghost, rect.combo.ghost {
    stroke-dasharray: 4, 4;
    stroke-width: 2;
}

text {
    text-anchor: middle;
    dominant-baseline: middle;
}

/* styling for layer labels */
text.label {
    font-weight: bold;
    text-anchor: start;
    stroke: white;
    stroke-width: 4;
    paint-order: stroke;
}

/* styling for optional footer */
text.footer {
    text-anchor: end;
    dominant-baseline: auto;
    stroke: white;
    stroke-width: 4;
    paint-order: stroke;
}

/* styling for combo tap, and key non-tap label text */
text.combo, text.hold, text.shifted, text.left, text.right {
    font-size: 11px;
}

text.hold {
    text-anchor: middle;
    dominant-baseline: auto;
}

text.shifted {
    text-anchor: middle;
    dominant-baseline: hanging;
}

text.left {
    text-anchor: start;
}

text.right {
    text-anchor: end;
}

text.layer-activator {
    text-decoration: underline;
}

/* styling for hold/shifted label text in combo box */
text.combo.hold, text.combo.shifted, text.combo.left, text.combo.right {
    font-size: 8px;
}

/* lighter symbol for transparent keys */
text.trans {
    fill: #7b7e81;
}

/* styling for combo dendrons */
path.combo {
    stroke-width: 1;
    stroke: gray;
    fill: none;
}

/* Start Tabler Icons Cleanup */
/* cannot use height/width with glyphs */
.icon-tabler > path {
    fill: inherit;
    stroke: inherit;
    stroke-width: 2;
}
/* hide tabler's default box */
.icon-tabler > path[stroke="none"][fill="none"] {
    visibility: hidden;
}
/* End Tabler Icons Cleanup */
</style>
<g transform="translate(30, 0)" class="layer-Base">
<text x="0" y="28" class="label" id="Base">Base:</text>
<g transform="translate(0, 56)">
<g transform="translate(78, 113) rotate(-10.0)" class="key keypos-0">
<rect rx="6" ry="6" x="-28" y="-26" width="55" height="52" class="key"/>
<text x="0" y="0" class="key tap">Q</text>
</g>
<g transform="translate(144, 62) rotate(-4.0)" class="key keypos-1">
<rect rx="6" ry="6" x="-28" y="-26" width="55" height="52" class="key"/>
<text x="0" y="0" class="key tap">W</text>
</g>
<g transform="translate(212, 28)" class="key keypos-2">
<rect rx="6" ry="6" x="-28" y="-26" width="55" height="52" class="key"/>
<text x="0" y="0" class="key tap">E</text>
</g>
<g transform="translate(271, 56)" class="key keypos-3">
<rect rx="6" ry="6" x="-28" y="-26" width="55" height="52" class="key"/>
<text x="0" y="0" class="key tap">R</text>
</g>
<g transform="translate(330, 65)" class="key keypos-4">
<rect rx="6" ry="6" x="-28" y="-26" width="55" height="52" class="key"/>
<text x="0" y="0" class="key tap">T</text>
</g>
<g transform="translate(520, 65)" class="key keypos-5">
<rect rx="6" ry="6" x="-28" y="-26" width="55" height="52" class="key"/>
<text x="0" y="0" class="key tap">Y</text>
</g>
<g transform="translate(580, 56)" class="key keypos-6">
<rect rx="6" ry="6" x="-28" y="-26" width="55" height="52" class="key"/>
<text x="0" y="0" class="key tap">U</text>
</g>
<g transform="translate(639, 28)" class="key keypos-7">
<rect rx="6" ry="6" x="-28" y="-26" width="55" height="52" class="key"/>
<text x="0" y="0" class="key tap">I</text>
</g>
<g transform="translate(706, 62) rotate(4.0)" class="key keypos-8">
<rect rx="6" ry="6" x="-28" y="-26" width="55" height="52" class="key"/>
<text x="0" y="0" class="key tap">O</text>
</g>
<g transform="translate(773, 113) rotate(10.0)" class="key keypos-9">
<rect rx="6" ry="6" x="-28" y="-26" width="55" height="52" class="key"/>
<text x="0" y="0" class="key tap">P</text>
</g>
<g transform="translate(87, 168) rotate(-10.0)" class="key keypos-10">
<rect rx="6" ry="6" x="-28" y="-26" width="55" height="52" class="key"/>
<text x="0" y="0" class="key tap">A</text>
<text x="0" y="24" class="key hold">LGUI</text>
</g>
<g transform="translate(148, 118) rotate(-4.0)" class="key keypos-11">
<rect rx="6" ry="6" x="-28" y="-26" width="55" height="52" class="key"/>
<text x="0" y="0" class="key tap">S</text>
<text x="0" y="24" class="key hold">LALT</text>
</g>
<g transform="translate(212, 84)" class="key keypos-12">
<rect rx="6" ry="6" x="-28" y="-26" width="55" height="52" class="key"/>
<text x="0" y="0" class="key tap">D</text>
<text x="0" y="24" class="key hold">LCTRL</text>
</g>
<g transform="translate(271, 112)" class="key keypos-13">
<rect rx="6" ry="6" x="-28" y="-26" width="55" height="52" class="key"/>
<text x="0" y="0" class="key tap">F</text>
<text x="0" y="24" class="key hold">LSHIFT</text>
</g>
<g transform="translate(330, 121)" class="key keypos-14">
<rect rx="6" ry="6" x="-28" y="-26" width="55" height="52" class="key"/>
<text x="0" y="0" class="key tap">G</text>
</g>
<g transform="translate(520, 121)" class="key keypos-15">
<rect rx="6" ry="6" x="-28" y="-26" width="55" height="52" class="key"/>
<text x="0" y="0" class="key tap">H</text>
</g>
<g transform="translate(580, 112)" class="key keypos-16">
<rect rx="6" ry="6" x="-28" y="-26" width="55" height="52" class="key"/>
<text x="0" y="0" class="key tap">J</text>
<text x="0" y="24" class="key hold">RSHFT</text>
</g>
<g transform="translate(639, 84)" class="key keypos-17">
<rect rx="6" ry="6" x="-28" y="-26" width="55" height="52" class="key"/>
<text x="0" y="0" class="key tap">K</text>
<text x="0" y="24" class="key hold">RCTRL</text>
</g>
<g transform="translate(703, 118) rotate(4.0)" class="key keypos-18">
<rect rx="6" ry="6" x="-28" y="-26" width="55" height="52" class="key"/>
<text x="0" y="0" class="key tap">L</text>
<text x="0" y="24" class="key hold">LALT</text>
</g>
<g transform="translate(764, 168) rotate(10.0)" class="key keypos-19">
<rect rx="6" ry="6" x="-28" y="-26" width="55" height="52" class="key"/>
<text x="0" y="0" class="key tap">CEDILLA</text>
<text x="0" y="24" class="key hold">RGUI</text>
</g>
<g transform="translate(34, 209) rotate(-10.0)" class="key keypos-20">
<rect rx="6" ry="6" x="-28" y="-26" width="55" height="52" class="key"/>
<text x="0" y="0" class="key tap">ESCAPE</text>
</g>
<g transform="translate(97, 223) rotate(-10.0)" class="key keypos-21">
<rect rx="6" ry="6" x="-28" y="-26" width="55" height="52" class="key"/>
<text x="0" y="0" class="key tap">Z</text>
</g>
<g transform="translate(152, 174) rotate(-4.0)" class="key keypos-22">
<rect rx="6" ry="6" x="-28" y="-26" width="55" height="52" class="key"/>
<text x="0" y="0" class="key tap">X</text>
</g>
<g transform="translate(212, 140)" class="key keypos-23">
<rect rx="6" ry="6" x="-28" y="-26" width="55" height="52" class="key"/>
<text x="0" y="0" class="key tap">C</text>
</g>
<g transform="translate(271, 168)" class="key keypos-24">
<rect rx="6" ry="6" x="-28" y="-26" width="55" height="52" class="key"/>
<text x="0" y="0" class="key tap">V</text>
</g>
<g transform="translate(330, 177)" class="key keypos-25">
<rect rx="6" ry="6" x="-28" y="-26" width="55" height="52" class="key"/>
<text x="0" y="0" class="key tap">B</text>
</g>
<g transform="translate(520, 177)" class="key keypos-26">
<rect rx="6" ry="6" x="-28" y="-26" width="55" height="52" class="key"/>
<text x="0" y="0" class="key tap">N</text>
</g>
<g transform="translate(580, 168)" class="key keypos-27">
<rect rx="6" ry="6" x="-28" y="-26" width="55" height="52" class="key"/>
<text x="0" y="0" class="key tap">M</text>
</g>
<g transform="translate(639, 140)" class="key keypos-28">
<rect rx="6" ry="6" x="-28" y="-26" width="55" height="52" class="key"/>
<text x="0" y="0" class="key tap">,</text>
</g>
<g transform="translate(699, 174) rotate(4.0)" class="key keypos-29">
<rect rx="6" ry="6" x="-28" y="-26" width="55" height="52" class="key"/>
<text x="0" y="0" class="key tap">.</text>
</g>
<g transform="translate(754, 223) rotate(10.0)" class="key keypos-30">
<rect rx="6" ry="6" x="-28" y="-26" width="55" height="52" class="key"/>
<text x="0" y="0" class="key tap">-</text>
</g>
<g transform="translate(817, 209) rotate(10.0)" class="key keypos-31">
<rect rx="6" ry="6" x="-28" y="-26" width="55" height="52" class="key"/>
<text x="0" y="0" class="key tap">.</text>
</g>
<g transform="translate(255, 236)" class="key keypos-32">
<rect rx="6" ry="6" x="-28" y="-26" width="55" height="52" class="key"/>
<text x="0" y="0" class="key tap">TAB</text>
</g>
<g transform="translate(320, 245) rotate(15.0)" class="key keypos-33">
<rect rx="6" ry="6" x="-28" y="-26" width="55" height="52" class="key"/>
<text x="0" y="0" class="key tap">RET</text>
</g>
<g transform="translate(381, 270) rotate(30.0)" class="key keypos-34">
<rect rx="6" ry="6" x="-28" y="-26" width="55" height="52" class="key"/>
<text x="0" y="0" class="key tap">LSHFT</text>
<text x="0" y="24" class="key hold">sticky</text>
</g>
<g transform="translate(470, 270) rotate(-30.0)" class="key keypos-35">
<rect rx="6" ry="6" x="-28" y="-26" width="55" height="52" class="key"/>
<text x="0" y="0" class="key tap"><tspan style="font-size: 70%">&amp;num_dance</tspan></text>
<a href="#Num">
<text x="0" y="24" class="key hold layer-activator">Num</text>
</a></g>
<g transform="translate(531, 245) rotate(-15.0)" class="key keypos-36">
<rect rx="6" ry="6" x="-28" y="-26" width="55" height="52" class="key"/>
<text x="0" y="0" class="key tap">SPACE</text>
</g>
<g transform="translate(596, 236)" class="key keypos-37">
<rect rx="6" ry="6" x="-28" y="-26" width="55" height="52" class="key"/>
<text x="0" y="0" class="key tap">BSPC</text>
<text x="0" y="-24" class="key shifted">DEL</text>
</g>
<g class="combo combopos-0">
<rect rx="6" ry="6" x="166" y="88" width="28" height="26" class="combo"/>
<text x="180" y="101" class="combo tap">?</text>
<text x="180" y="112" class="combo hold"><tspan style="font-size: 88%">Sft+LALT</tspan></text>
<text x="180" y="90" class="combo shifted">!</text>
</g>
<g class="combo combopos-1">
<rect rx="6" ry="6" x="228" y="85" width="28" height="26" class="combo"/>
<text x="242" y="98" class="combo tap">/</text>
<text x="242" y="109" class="combo hold"><tspan style="font-size: 78%">Sft+LCTRL</tspan></text>
<text x="242" y="87" class="combo shifted">\</text>
</g>
<g class="combo combopos-2">
<rect rx="6" ry="6" x="168" y="144" width="28" height="26" class="combo"/>
<text x="182" y="157" class="combo tap">Ctl+C</text>
</g>
<g class="combo combopos-3">
<rect rx="6" ry="6" x="228" y="141" width="28" height="26" class="combo"/>
<text x="242" y="154" class="combo tap">Ctl+V</text>
</g>
<g class="combo combopos-4">
<rect rx="6" ry="6" x="595" y="85" width="28" height="26" class="combo"/>
<text x="609" y="98" class="combo tap">(</text>
<text x="609" y="109" class="combo hold"><tspan style="font-size: 78%">Sft+LCTRL</tspan></text>
<text x="609" y="87" class="combo shifted">&lt;</text>
</g>
<g class="combo combopos-5">
<rect rx="6" ry="6" x="657" y="88" width="28" height="26" class="combo"/>
<text x="671" y="101" class="combo tap">)</text>
<text x="671" y="112" class="combo hold"><tspan style="font-size: 88%">Sft+LALT</tspan></text>
<text x="671" y="90" class="combo shifted">&gt;</text>
</g>
<g class="combo combopos-6">
<rect rx="6" ry="6" x="595" y="141" width="28" height="26" class="combo"/>
<text x="609" y="154" class="combo tap">[</text>
<text x="609" y="143" class="combo shifted">{</text>
</g>
<g class="combo combopos-7">
<rect rx="6" ry="6" x="655" y="144" width="28" height="26" class="combo"/>
<text x="669" y="157" class="combo tap">]</text>
<text x="669" y="146" class="combo shifted">}</text>
</g>
<g class="combo combopos-8">
<rect rx="6" ry="6" x="198" y="43" width="28" height="26" class="combo"/>
<text x="212" y="56" class="combo tap">&#x27;</text>
</g>
<g class="combo combopos-9">
<rect rx="6" ry="6" x="625" y="43" width="28" height="26" class="combo"/>
<text x="639" y="56" class="combo tap">&quot;</text>
</g>
<g class="combo combopos-10">
<path d="M425,84 l-194,0" class="combo"/>
<path d="M425,84 l194,0" class="combo"/>
<rect rx="6" ry="6" x="411" y="71" width="28" height="26" class="combo"/>
<text x="425" y="84" class="combo tap"><tspan style="font-size: 70%">&amp;caps_word</tspan></text>
</g>
<g class="combo combopos-11">
<rect rx="6" ry="6" x="164" y="32" width="28" height="26" class="combo"/>
<text x="178" y="45" class="combo tap">|</text>
<text x="178" y="34" class="combo shifted">&amp;</text>
</g>
<g class="combo combopos-12">
<rect rx="6" ry="6" x="287" y="103" width="28" height="26" class="combo"/>
<text x="301" y="116" class="combo tap">$</text>
<text x="301" y="105" class="combo shifted">EURO</text>
</g>
<g class="combo combopos-13">
<rect rx="6" ry="6" x="536" y="103" width="28" height="26" class="combo"/>
<text x="550" y="116" class="combo tap">@</text>
<text x="550" y="105" class="combo shifted">#</text>
</g>
<g class="combo combopos-14">
<rect rx="6" ry="6" x="536" y="47" width="28" height="26" class="combo"/>
<text x="550" y="60" class="combo tap">ORDM</text>
</g>
<g class="combo combopos-15">
<rect rx="6" ry="6" x="595" y="29" width="28" height="26" class="combo"/>
<text x="609" y="42" class="combo tap">~</text>
</g>
<g class="combo combopos-16">
<rect rx="6" ry="6" x="566" y="71" width="28" height="26" class="combo"/>
<text x="580" y="84" class="combo tap">&lt;</text>
</g>
<g class="combo combopos-17">
<rect rx="6" ry="6" x="690" y="77" width="28" height="26" class="combo"/>
<text x="704" y="90" class="combo tap">&gt;</text>
</g>
<g class="combo combopos-18">
<rect rx="6" ry="6" x="566" y="127" width="28" height="26" class="combo"/>
<text x="580" y="140" class="combo tap">{</text>
</g>
<g class="combo combopos-19">
<rect rx="6" ry="6" x="687" y="133" width="28" height="26" class="combo"/>
<text x="701" y="146" class="combo tap">}</text>
</g>
<g class="combo combopos-20">
<rect rx="6" ry="6" x="659" y="32" width="28" height="26" class="combo"/>
<text x="673" y="45" class="combo tap"><tspan style="font-size: 70%">&amp;grave_spc</tspan></text>
<text x="673" y="56" class="combo hold">ACUTE</text>
</g>
</g>
</g>
<g transform="translate(30, 366)" class="layer-Colemak">
<text x="0" y="28" class="label" id="Colemak">Colemak:</text>
<g transform="translate(0, 56)">
<g transform="translate(78, 113) rotate(-10.0)" class="key keypos-0">
<rect rx="6" ry="6" x="-28" y="-26" width="55" height="52" class="key"/>
<text x="0" y="0" class="key tap">Q</text>
</g>
<g transform="translate(144, 62) rotate(-4.0)" class="key keypos-1">
<rect rx="6" ry="6" x="-28" y="-26" width="55" height="52" class="key"/>
<text x="0" y="0" class="key tap">W</text>
</g>
<g transform="translate(212, 28)" class="key keypos-2">
<rect rx="6" ry="6" x="-28" y="-26" width="55" height="52" class="key"/>
<text x="0" y="0" class="key tap">F</text>
</g>
<g transform="translate(271, 56)" class="key keypos-3">
<rect rx="6" ry="6" x="-28" y="-26" width="55" height="52" class="key"/>
<text x="0" y="0" class="key tap">P</text>
</g>
<g transform="translate(330, 65)" class="key keypos-4">
<rect rx="6" ry="6" x="-28" y="-26" width="55" height="52" class="key"/>
<text x="0" y="0" class="key tap">B</text>
</g>
<g transform="translate(520, 65)" class="key keypos-5">
<rect rx="6" ry="6" x="-28" y="-26" width="55" height="52" class="key"/>
<text x="0" y="0" class="key tap">J</text>
</g>
<g transform="translate(580, 56)" class="key keypos-6">
<rect rx="6" ry="6" x="-28" y="-26" width="55" height="52" class="key"/>
<text x="0" y="0" class="key tap">L</text>
</g>
<g transform="translate(639, 28)" class="key keypos-7">
<rect rx="6" ry="6" x="-28" y="-26" width="55" height="52" class="key"/>
<text x="0" y="0" class="key tap">U</text>
</g>
<g transform="translate(706, 62) rotate(4.0)" class="key keypos-8">
<rect rx="6" ry="6" x="-28" y="-26" width="55" height="52" class="key"/>
<text x="0" y="0" class="key tap">Y</text>
</g>
<g transform="translate(773, 113) rotate(10.0)" class="key keypos-9">
<rect rx="6" ry="6" x="-28" y="-26" width="55" height="52" class="key"/>
<text x="0" y="0" class="key tap">CEDILLA</text>
</g>
<g transform="translate(87, 168) rotate(-10.0)" class="key keypos-10">
<rect rx="6" ry="6" x="-28" y="-26" width="55" height="52" class="key"/>
<text x="0" y="0" class="key tap">A</text>
<text x="0" y="24" class="key hold">LGUI</text>
</g>
<g transform="translate(148, 118) rotate(-4.0)" class="key keypos-11">
<rect rx="6" ry="6" x="-28" y="-26" width="55" height="52" class="key"/>
<text x="0" y="0" class="key tap">R</text>
<text x="0" y="24" class="key hold">LALT</text>
</g>
<g transform="translate(212, 84)" class="key keypos-12">
<rect rx="6" ry="6" x="-28" y="-26" width="55" height="52" class="key"/>
<text x="0" y="0" class="key tap">S</text>
<text x="0" y="24" class="key hold">LCTRL</text>
</g>
<g transform="translate(271, 112)" class="key keypos-13">
<rect rx="6" ry="6" x="-28" y="-26" width="55" height="52" class="key"/>
<text x="0" y="0" class="key tap">T</text>
<text x="0" y="24" class="key hold">LSHIFT</text>
</g>
<g transform="translate(330, 121)" class="key keypos-14">
<rect rx="6" ry="6" x="-28" y="-26" width="55" height="52" class="key"/>
<text x="0" y="0" class="key tap">G</text>
</g>
<g transform="translate(520, 121)" class="key keypos-15">
<rect rx="6" ry="6" x="-28" y="-26" width="55" height="52" class="key"/>
<text x="0" y="0" class="key tap">M</text>
</g>
<g transform="translate(580, 112)" class="key keypos-16">
<rect rx="6" ry="6" x="-28" y="-26" width="55" height="52" class="key"/>
<text x="0" y="0" class="key tap">N</text>
<text x="0" y="24" class="key hold">RSHFT</text>
</g>
<g transform="translate(639, 84)" class="key keypos-17">
<rect rx="6" ry="6" x="-28" y="-26" width="55" height="52" class="key"/>
<text x="0" y="0" class="key tap">E</text>
<text x="0" y="24" class="key hold">RCTRL</text>
</g>
<g transform="translate(703, 118) rotate(4.0)" class="key keypos-18">
<rect rx="6" ry="6" x="-28" y="-26" width="55" height="52" class="key"/>
<text x="0" y="0" class="key tap">I</text>
<text x="0" y="24" class="key hold">LALT</text>
</g>
<g transform="translate(764, 168) rotate(10.0)" class="key keypos-19">
<rect rx="6" ry="6" x="-28" y="-26" width="55" height="52" class="key"/>
<text x="0" y="0" class="key tap">O</text>
<text x="0" y="24" class="key hold">RGUI</text>
</g>
<g transform="translate(34, 209) rotate(-10.0)" class="key keypos-20">
<rect rx="6" ry="6" x="-28" y="-26" width="55" height="52" class="key"/>
<text x="0" y="0" class="key tap">ESCAPE</text>
</g>
<g transform="translate(97, 223) rotate(-10.0)" class="key keypos-21">
<rect rx="6" ry="6" x="-28" y="-26" width="55" height="52" class="key"/>
<text x="0" y="0" class="key tap">Z</text>
</g>
<g transform="translate(152, 174) rotate(-4.0)" class="key keypos-22">
<rect rx="6" ry="6" x="-28" y="-26" width="55" height="52" class="key"/>
<text x="0" y="0" class="key tap">X</text>
</g>
<g transform="translate(212, 140)" class="key keypos-23">
<rect rx="6" ry="6" x="-28" y="-26" width="55" height="52" class="key"/>
<text x="0" y="0" class="key tap">C</text>
</g>
<g transform="translate(271, 168)" class="key keypos-24">
<rect rx="6" ry="6" x="-28" y="-26" width="55" height="52" class="key"/>
<text x="0" y="0" class="key tap">D</text>
</g>
<g transform="translate(330, 177)" class="key keypos-25">
<rect rx="6" ry="6" x="-28" y="-26" width="55" height="52" class="key"/>
<text x="0" y="0" class="key tap">V</text>
</g>
<g transform="translate(520, 177)" class="key keypos-26">
<rect rx="6" ry="6" x="-28" y="-26" width="55" height="52" class="key"/>
<text x="0" y="0" class="key tap">K</text>
</g>
<g transform="translate(580, 168)" class="key keypos-27">
<rect rx="6" ry="6" x="-28" y="-26" width="55" height="52" class="key"/>
<text x="0" y="0" class="key tap">H</text>
</g>
<g transform="translate(639, 140)" class="key keypos-28">
<rect rx="6" ry="6" x="-28" y="-26" width="55" height="52" class="key"/>
<text x="0" y="0" class="key tap">,</text>
</g>
<g transform="translate(699, 174) rotate(4.0)" class="key keypos-29">
<rect rx="6" ry="6" x="-28" y="-26" width="55" height="52" class="key"/>
<text x="0" y="0" class="key tap">.</text>
</g>
<g transform="translate(754, 223) rotate(10.0)" class="key keypos-30">
<rect rx="6" ry="6" x="-28" y="-26" width="55" height="52" class="key"/>
<text x="0" y="0" class="key tap">-</text>
</g>
<g transform="translate(817, 209) rotate(10.0)" class="key keypos-31">
<rect rx="6" ry="6" x="-28" y="-26" width="55" height="52" class="key"/>
<text x="0" y="0" class="key tap">&#x27;</text>
</g>
<g transform="translate(255, 236)" class="key keypos-32">
<rect rx="6" ry="6" x="-28" y="-26" width="55" height="52" class="key"/>
<text x="0" y="0" class="key tap">DEL</text>
<text x="0" y="24" class="key hold">LCTRL</text>
</g>
<g transform="translate(320, 245) rotate(15.0)" class="key keypos-33">
<rect rx="6" ry="6" x="-28" y="-26" width="55" height="52" class="key"/>
<text x="0" y="0" class="key tap">RET</text>
<a href="#Num">
<text x="0" y="24" class="key hold layer-activator">Num</text>
</a></g>
<g transform="translate(381, 270) rotate(30.0)" class="key keypos-34">
<rect rx="6" ry="6" x="-28" y="-26" width="55" height="52" class="key"/>
<text x="0" y="0" class="key tap">RET</text>
</g>
<g transform="translate(470, 270) rotate(-30.0)" class="key keypos-35">
<rect rx="6" ry="6" x="-28" y="-26" width="55" height="52" class="key"/>
<text x="0" y="0" class="key tap">SPACE</text>
</g>
<g transform="translate(531, 245) rotate(-15.0)" class="key keypos-36">
<rect rx="6" ry="6" x="-28" y="-26" width="55" height="52" class="key"/>
<text x="0" y="0" class="key tap">SPACE</text>
<a href="#Num">
<text x="0" y="24" class="key hold layer-activator">Num</text>
</a></g>
<g transform="translate(596, 236)" class="key keypos-37">
<rect rx="6" ry="6" x="-28" y="-26" width="55" height="52" class="key"/>
<text x="0" y="0" class="key tap">-</text>
</g>
<g class="combo combopos-0">
<rect rx="6" ry="6" x="166" y="88" width="28" height="26" class="combo"/>
<text x="180" y="101" class="combo tap">?</text>
<text x="180" y="112" class="combo hold"><tspan style="font-size: 88%">Sft+LALT</tspan></text>
<text x="180" y="90" class="combo shifted">!</text>
</g>
<g class="combo combopos-1">
<rect rx="6" ry="6" x="228" y="85" width="28" height="26" class="combo"/>
<text x="242" y="98" class="combo tap">/</text>
<text x="242" y="109" class="combo hold"><tspan style="font-size: 78%">Sft+LCTRL</tspan></text>
<text x="242" y="87" class="combo shifted">\</text>
</g>
<g class="combo combopos-2">
<rect rx="6" ry="6" x="168" y="144" width="28" height="26" class="combo"/>
<text x="182" y="157" class="combo tap">Ctl+C</text>
</g>
<g class="combo combopos-3">
<rect rx="6" ry="6" x="228" y="141" width="28" height="26" class="combo"/>
<text x="242" y="154" class="combo tap">Ctl+V</text>
</g>
<g class="combo combopos-4">
<rect rx="6" ry="6" x="595" y="85" width="28" height="26" class="combo"/>
<text x="609" y="98" class="combo tap">(</text>
<text x="609" y="109" class="combo hold"><tspan style="font-size: 78%">Sft+LCTRL</tspan></text>
<text x="609" y="87" class="combo shifted">&lt;</text>
</g>
<g class="combo combopos-5">
<rect rx="6" ry="6" x="657" y="88" width="28" height="26" class="combo"/>
<text x="671" y="101" class="combo tap">)</text>
<text x="671" y="112" class="combo hold"><tspan style="font-size: 88%">Sft+LALT</tspan></text>
<text x="671" y="90" class="combo shifted">&gt;</text>
</g>
<g class="combo combopos-6">
<rect rx="6" ry="6" x="595" y="141" width="28" height="26" class="combo"/>
<text x="609" y="154" class="combo tap">[</text>
<text x="609" y="143" class="combo shifted">{</text>
</g>
<g class="combo combopos-7">
<rect rx="6" ry="6" x="655" y="144" width="28" height="26" class="combo"/>
<text x="669" y="157" class="combo tap">]</text>
<text x="669" y="146" class="combo shifted">}</text>
</g>
<g class="combo combopos-8">
<rect rx="6" ry="6" x="198" y="43" width="28" height="26" class="combo"/>
<text x="212" y="56" class="combo tap">&#x27;</text>
</g>
<g class="combo combopos-9">
<rect rx="6" ry="6" x="625" y="43" width="28" height="26" class="combo"/>
<text x="639" y="56" class="combo tap">&quot;</text>
</g>
<g class="combo combopos-10">
<path d="M425,84 l-194,0" class="combo"/>
<path d="M425,84 l194,0" class="combo"/>
<rect rx="6" ry="6" x="411" y="71" width="28" height="26" class="combo"/>
<text x="425" y="84" class="combo tap"><tspan style="font-size: 70%">&amp;caps_word</tspan></text>
</g>
<g class="combo combopos-11">
<rect rx="6" ry="6" x="164" y="32" width="28" height="26" class="combo"/>
<text x="178" y="45" class="combo tap">|</text>
<text x="178" y="34" class="combo shifted">&amp;</text>
</g>
<g class="combo combopos-12">
<rect rx="6" ry="6" x="287" y="103" width="28" height="26" class="combo"/>
<text x="301" y="116" class="combo tap">$</text>
<text x="301" y="105" class="combo shifted">EURO</text>
</g>
<g class="combo combopos-13">
<rect rx="6" ry="6" x="536" y="103" width="28" height="26" class="combo"/>
<text x="550" y="116" class="combo tap">@</text>
<text x="550" y="105" class="combo shifted">#</text>
</g>
<g class="combo combopos-14">
<rect rx="6" ry="6" x="536" y="47" width="28" height="26" class="combo"/>
<text x="550" y="60" class="combo tap">ORDM</text>
</g>
<g class="combo combopos-15">
<rect rx="6" ry="6" x="595" y="29" width="28" height="26" class="combo"/>
<text x="609" y="42" class="combo tap">~</text>
</g>
<g class="combo combopos-16">
<rect rx="6" ry="6" x="566" y="71" width="28" height="26" class="combo"/>
<text x="580" y="84" class="combo tap">&lt;</text>
</g>
<g class="combo combopos-17">
<rect rx="6" ry="6" x="690" y="77" width="28" height="26" class="combo"/>
<text x="704" y="90" class="combo tap">&gt;</text>
</g>
<g class="combo combopos-18">
<rect rx="6" ry="6" x="566" y="127" width="28" height="26" class="combo"/>
<text x="580" y="140" class="combo tap">{</text>
</g>
<g class="combo combopos-19">
<rect rx="6" ry="6" x="687" y="133" width="28" height="26" class="combo"/>
<text x="701" y="146" class="combo tap">}</text>
</g>
<g class="combo combopos-20">
<rect rx="6" ry="6" x="659" y="32" width="28" height="26" class="combo"/>
<text x="673" y="45" class="combo tap"><tspan style="font-size: 70%">&amp;grave_spc</tspan></text>
<text x="673" y="56" class="combo hold">ACUTE</text>
</g>
</g>
</g>
<g transform="translate(30, 731)" class="layer-Num">
<text x="0" y="28" class="label" id="Num">Num:</text>
<g transform="translate(0, 56)">
<g transform="translate(78, 113) rotate(-10.0)" class="key keypos-0">
<rect rx="6" ry="6" x="-28" y="-26" width="55" height="52" class="key"/>
<text x="0" y="0" class="key tap">/</text>
</g>
<g transform="translate(144, 62) rotate(-4.0)" class="key keypos-1">
<rect rx="6" ry="6" x="-28" y="-26" width="55" height="52" class="key"/>
<text x="0" y="0" class="key tap">7</text>
</g>
<g transform="translate(212, 28)" class="key keypos-2">
<rect rx="6" ry="6" x="-28" y="-26" width="55" height="52" class="key"/>
<text x="0" y="0" class="key tap">8</text>
</g>
<g transform="translate(271, 56)" class="key keypos-3">
<rect rx="6" ry="6" x="-28" y="-26" width="55" height="52" class="key"/>
<text x="0" y="0" class="key tap">9</text>
</g>
<g transform="translate(330, 65)" class="key keypos-4">
<rect rx="6" ry="6" x="-28" y="-26" width="55" height="52" class="key"/>
<text x="0" y="0" class="key tap">-</text>
</g>
<g transform="translate(520, 65)" class="key keypos-5">
<rect rx="6" ry="6" x="-28" y="-26" width="55" height="52" class="key"/>
</g>
<g transform="translate(580, 56)" class="key keypos-6">
<rect rx="6" ry="6" x="-28" y="-26" width="55" height="52" class="key"/>
<text x="0" y="0" class="key tap">Ctl+D</text>
</g>
<g transform="translate(639, 28)" class="key keypos-7">
<rect rx="6" ry="6" x="-28" y="-26" width="55" height="52" class="key"/>
<text x="0" y="0" class="key tap">Ctl+U</text>
</g>
<g transform="translate(706, 62) rotate(4.0)" class="key keypos-8">
<rect rx="6" ry="6" x="-28" y="-26" width="55" height="52" class="key"/>
</g>
<g transform="translate(773, 113) rotate(10.0)" class="key keypos-9">
<rect rx="6" ry="6" x="-28" y="-26" width="55" height="52" class="key"/>
<a href="#Colemak">
<text x="0" y="0" class="key tap layer-activator">Colemak</text>
</a><text x="0" y="24" class="key hold">toggle</text>
</g>
<g transform="translate(87, 168) rotate(-10.0)" class="key keypos-10">
<rect rx="6" ry="6" x="-28" y="-26" width="55" height="52" class="key"/>
<text x="0" y="0" class="key tap">*</text>
</g>
<g transform="translate(148, 118) rotate(-4.0)" class="key keypos-11">
<rect rx="6" ry="6" x="-28" y="-26" width="55" height="52" class="key"/>
<text x="0" y="0" class="key tap">4</text>
</g>
<g transform="translate(212, 84)" class="key keypos-12">
<rect rx="6" ry="6" x="-28" y="-26" width="55" height="52" class="key"/>
<text x="0" y="0" class="key tap">5</text>
</g>
<g transform="translate(271, 112)" class="key keypos-13">
<rect rx="6" ry="6" x="-28" y="-26" width="55" height="52" class="key"/>
<text x="0" y="0" class="key tap">6</text>
</g>
<g transform="translate(330, 121)" class="key keypos-14">
<rect rx="6" ry="6" x="-28" y="-26" width="55" height="52" class="key"/>
<text x="0" y="0" class="key tap">+</text>
</g>
<g transform="translate(520, 121)" class="key keypos-15">
<rect rx="6" ry="6" x="-28" y="-26" width="55" height="52" class="key"/>
<text x="0" y="0" class="key tap">LEFT</text>
</g>
<g transform="translate(580, 112)" class="key keypos-16">
<rect rx="6" ry="6" x="-28" y="-26" width="55" height="52" class="key"/>
<text x="0" y="0" class="key tap">DOWN</text>
</g>
<g transform="translate(639, 84)" class="key keypos-17">
<rect rx="6" ry="6" x="-28" y="-26" width="55" height="52" class="key"/>
<text x="0" y="0" class="key tap">UP</text>
</g>
<g transform="translate(703, 118) rotate(4.0)" class="key keypos-18">
<rect rx="6" ry="6" x="-28" y="-26" width="55" height="52" class="key"/>
<text x="0" y="0" class="key tap">RIGHT</text>
</g>
<g transform="translate(764, 168) rotate(10.0)" class="key keypos-19">
<rect rx="6" ry="6" x="-28" y="-26" width="55" height="52" class="key"/>
</g>
<g transform="translate(34, 209) rotate(-10.0)" class="key keypos-20">
<rect rx="6" ry="6" x="-28" y="-26" width="55" height="52" class="key"/>
<text x="0" y="0" class="key tap">ESCAPE</text>
</g>
<g transform="translate(97, 223) rotate(-10.0)" class="key keypos-21">
<rect rx="6" ry="6" x="-28" y="-26" width="55" height="52" class="key"/>
<text x="0" y="0" class="key tap">,</text>
</g>
<g transform="translate(152, 174) rotate(-4.0)" class="key keypos-22">
<rect rx="6" ry="6" x="-28" y="-26" width="55" height="52" class="key"/>
<text x="0" y="0" class="key tap">1</text>
</g>
<g transform="translate(212, 140)" class="key keypos-23">
<rect rx="6" ry="6" x="-28" y="-26" width="55" height="52" class="key"/>
<text x="0" y="0" class="key tap">2</text>
</g>
<g transform="translate(271, 168)" class="key keypos-24">
<rect rx="6" ry="6" x="-28" y="-26" width="55" height="52" class="key"/>
<text x="0" y="0" class="key tap">3</text>
</g>
<g transform="translate(330, 177)" class="key keypos-25">
<rect rx="6" ry="6" x="-28" y="-26" width="55" height="52" class="key"/>
<text x="0" y="0" class="key tap">=</text>
</g>
<g transform="translate(520, 177)" class="key keypos-26">
<rect rx="6" ry="6" x="-28" y="-26" width="55" height="52" class="key"/>
<text x="0" y="0" class="key tap">N</text>
</g>
<g transform="translate(580, 168)" class="key keypos-27">
<rect rx="6" ry="6" x="-28" y="-26" width="55" height="52" class="key"/>
<text x="0" y="0" class="key tap">LSHIFT</text>
<text x="0" y="24" class="key hold">sticky</text>
</g>
<g transform="translate(639, 140)" class="key keypos-28">
<rect rx="6" ry="6" x="-28" y="-26" width="55" height="52" class="key"/>
<text x="0" y="0" class="key tap">RCTRL</text>
<text x="0" y="24" class="key hold">sticky</text>
</g>
<g transform="translate(699, 174) rotate(4.0)" class="key keypos-29">
<rect rx="6" ry="6" x="-28" y="-26" width="55" height="52" class="key"/>
<text x="0" y="0" class="key tap">RALT</text>
<text x="0" y="24" class="key hold">sticky</text>
</g>
<g transform="translate(754, 223) rotate(10.0)" class="key keypos-30">
<rect rx="6" ry="6" x="-28" y="-26" width="55" height="52" class="key"/>
<text x="0" y="0" class="key tap">RGUI</text>
<text x="0" y="24" class="key hold">sticky</text>
</g>
<g transform="translate(817, 209) rotate(10.0)" class="key keypos-31">
<rect rx="6" ry="6" x="-28" y="-26" width="55" height="52" class="key"/>
</g>
<g transform="translate(255, 236)" class="key keypos-32">
<rect rx="6" ry="6" x="-28" y="-26" width="55" height="52" class="key"/>
<text x="0" y="0" class="key tap">.</text>
</g>
<g transform="translate(320, 245) rotate(15.0)" class="key keypos-33">
<rect rx="6" ry="6" x="-28" y="-26" width="55" height="52" class="key"/>
<text x="0" y="0" class="key tap">RET</text>
</g>
<g transform="translate(381, 270) rotate(30.0)" class="key keypos-34">
<rect rx="6" ry="6" x="-28" y="-26" width="55" height="52" class="key"/>
<text x="0" y="0" class="key tap">0</text>
</g>
<g transform="translate(470, 270) rotate(-30.0)" class="key held keypos-35">
<rect rx="6" ry="6" x="-28" y="-26" width="55" height="52" class="key held"/>
<text x="0" y="0" class="key held tap">CANCEL</text>
</g>
<g transform="translate(531, 245) rotate(-15.0)" class="key keypos-36">
<rect rx="6" ry="6" x="-28" y="-26" width="55" height="52" class="key"/>
<text x="0" y="0" class="key tap">SPACE</text>
</g>
<g transform="translate(596, 236)" class="key keypos-37">
<rect rx="6" ry="6" x="-28" y="-26" width="55" height="52" class="key"/>
<text x="0" y="0" class="key tap">BSPC</text>
<text x="0" y="-24" class="key shifted">DEL</text>
</g>
<g class="combo combopos-0">
<rect rx="6" ry="6" x="166" y="88" width="28" height="26" class="combo"/>
<text x="180" y="101" class="combo tap">?</text>
<text x="180" y="112" class="combo hold"><tspan style="font-size: 88%">Sft+LALT</tspan></text>
<text x="180" y="90" class="combo shifted">!</text>
</g>
<g class="combo combopos-1">
<rect rx="6" ry="6" x="228" y="85" width="28" height="26" class="combo"/>
<text x="242" y="98" class="combo tap">/</text>
<text x="242" y="109" class="combo hold"><tspan style="font-size: 78%">Sft+LCTRL</tspan></text>
<text x="242" y="87" class="combo shifted">\</text>
</g>
<g class="combo combopos-2">
<rect rx="6" ry="6" x="168" y="144" width="28" height="26" class="combo"/>
<text x="182" y="157" class="combo tap">Ctl+C</text>
</g>
<g class="combo combopos-3">
<rect rx="6" ry="6" x="228" y="141" width="28" height="26" class="combo"/>
<text x="242" y="154" class="combo tap">Ctl+V</text>
</g>
<g class="combo combopos-4">
<rect rx="6" ry="6" x="595" y="85" width="28" height="26" class="combo"/>
<text x="609" y="98" class="combo tap">(</text>
<text x="609" y="109" class="combo hold"><tspan style="font-size: 78%">Sft+LCTRL</tspan></text>
<text x="609" y="87" class="combo shifted">&lt;</text>
</g>
<g class="combo combopos-5">
<rect rx="6" ry="6" x="657" y="88" width="28" height="26" class="combo"/>
<text x="671" y="101" class="combo tap">)</text>
<text x="671" y="112" class="combo hold"><tspan style="font-size: 88%">Sft+LALT</tspan></text>
<text x="671" y="90" class="combo shifted">&gt;</text>
</g>
<g class="combo combopos-6">
<rect rx="6" ry="6" x="595" y="141" width="28" height="26" class="combo"/>
<text x="609" y="154" class="combo tap">[</text>
<text x="609" y="143" class="combo shifted">{</text>
</g>
<g class="combo combopos-7">
<rect rx="6" ry="6" x="655" y="144" width="28" height="26" class="combo"/>
<text x="669" y="157" class="combo tap">]</text>
<text x="669" y="146" class="combo shifted">}</text>
</g>
<g class="combo combopos-8">
<rect rx="6" ry="6" x="198" y="43" width="28" height="26" class="combo"/>
<text x="212" y="56" class="combo tap">&#x27;</text>
</g>
<g class="combo combopos-9">
<rect rx="6" ry="6" x="625" y="43" width="28" height="26" class="combo"/>
<text x="639" y="56" class="combo tap">&quot;</text>
</g>
<g class="combo combopos-10">
<path d="M425,84 l-194,0" class="combo"/>
<path d="M425,84 l194,0" class="combo"/>
<rect rx="6" ry="6" x="411" y="71" width="28" height="26" class="combo"/>
<text x="425" y="84" class="combo tap"><tspan style="font-size: 70%">&amp;caps_word</tspan></text>
</g>
<g class="combo combopos-11">
<rect rx="6" ry="6" x="164" y="32" width="28" height="26" class="combo"/>
<text x="178" y="45" class="combo tap">|</text>
<text x="178" y="34" class="combo shifted">&amp;</text>
</g>
<g class="combo combopos-12">
<rect rx="6" ry="6" x="287" y="103" width="28" height="26" class="combo"/>
<text x="301" y="116" class="combo tap">$</text>
<text x="301" y="105" class="combo shifted">EURO</text>
</g>
<g class="combo combopos-13">
<rect rx="6" ry="6" x="536" y="103" width="28" height="26" class="combo"/>
<text x="550" y="116" class="combo tap">@</text>
<text x="550" y="105" class="combo shifted">#</text>
</g>
<g class="combo combopos-14">
<rect rx="6" ry="6" x="536" y="47" width="28" height="26" class="combo"/>
<text x="550" y="60" class="combo tap">ORDM</text>
</g>
<g class="combo combopos-15">
<rect rx="6" ry="6" x="595" y="29" width="28" height="26" class="combo"/>
<text x="609" y="42" class="combo tap">~</text>
</g>
<g class="combo combopos-16">
<rect rx="6" ry="6" x="566" y="71" width="28" height="26" class="combo"/>
<text x="580" y="84" class="combo tap">&lt;</text>
</g>
<g class="combo combopos-17">
<rect rx="6" ry="6" x="690" y="77" width="28" height="26" class="combo"/>
<text x="704" y="90" class="combo tap">&gt;</text>
</g>
<g class="combo combopos-18">
<rect rx="6" ry="6" x="566" y="127" width="28" height="26" class="combo"/>
<text x="580" y="140" class="combo tap">{</text>
</g>
<g class="combo combopos-19">
<rect rx="6" ry="6" x="687" y="133" width="28" height="26" class="combo"/>
<text x="701" y="146" class="combo tap">}</text>
</g>
<g class="combo combopos-20">
<rect rx="6" ry="6" x="659" y="32" width="28" height="26" class="combo"/>
<text x="673" y="45" class="combo tap"><tspan style="font-size: 70%">&amp;grave_spc</tspan></text>
<text x="673" y="56" class="combo hold">ACUTE</text>
</g>
</g>
</g>
</svg>
