<svg width="911" height="1153" viewBox="0 0 911 1153" class="keymap" xmlns="http://www.w3.org/2000/svg" xmlns:xlink="http://www.w3.org/1999/xlink">
<style>/* inherit to force styles through use tags */
svg path {
    fill: inherit;
}

/* font and background color specifications */
svg.keymap {
    font-family: SFMono-Regular,Consolas,Liberation Mono,Menlo,monospace;
    font-size: 14px;
    font-kerning: normal;
    text-rendering: optimizeLegibility;
    fill: #24292e;
}

/* default key styling */
rect.key {
    fill: #f6f8fa;
}

rect.key, rect.combo {
    stroke: #c9cccf;
    stroke-width: 1;
}

/* default key side styling, only used is draw_key_sides is set */
rect.side {
    filter: brightness(90%);
}

/* color accent for combo boxes */
rect.combo, rect.combo-separate {
    fill: #cdf;
}

/* color accent for held keys */
rect.held, rect.combo.held {
    fill: #fdd;
}

/* color accent for ghost (optional) keys */
rect.ghost, rect.combo.ghost {
    stroke-dasharray: 4, 4;
    stroke-width: 2;
}

text {
    text-anchor: middle;
    dominant-baseline: middle;
}

/* styling for layer labels */
text.label {
    font-weight: bold;
    text-anchor: start;
    stroke: white;
    stroke-width: 4;
    paint-order: stroke;
}

/* styling for optional footer */
text.footer {
    text-anchor: end;
    dominant-baseline: auto;
    stroke: white;
    stroke-width: 4;
    paint-order: stroke;
}

/* styling for combo tap, and key non-tap label text */
text.combo, text.hold, text.shifted, text.left, text.right {
    font-size: 11px;
}

text.hold {
    text-anchor: middle;
    dominant-baseline: auto;
}

text.shifted {
    text-anchor: middle;
    dominant-baseline: hanging;
}

text.left {
    text-anchor: start;
}

text.right {
    text-anchor: end;
}

text.layer-activator {
    text-decoration: underline;
}

/* styling for hold/shifted label text in combo box */
text.combo.hold, text.combo.shifted, text.combo.left, text.combo.right {
    font-size: 8px;
}

/* lighter symbol for transparent keys */
text.trans {
    fill: #7b7e81;
}

/* styling for combo dendrons */
path.combo {
    stroke-width: 1;
    stroke: gray;
    fill: none;
}

/* Start Tabler Icons Cleanup */
/* cannot use height/width with glyphs */
.icon-tabler > path {
    fill: inherit;
    stroke: inherit;
    stroke-width: 2;
}
/* hide tabler's default box */
.icon-tabler > path[stroke="none"][fill="none"] {
    visibility: hidden;
}
/* End Tabler Icons Cleanup */
</style>
<g transform="translate(30, 0)" class="layer-Base">
<text x="0" y="28" class="label" id="Base">Base:</text>
<g transform="translate(0, 56)">
<g transform="translate(78, 113) rotate(-10.0)" class="key keypos-0">
<rect rx="6" ry="6" x="-28" y="-26" width="55" height="52" class="key"/>
<text x="0" y="0" class="key tap">
<tspan x="0" dy="-0.6em">PT</tspan><tspan x="0" dy="1.2em">Q</tspan>
</text>
</g>
<g transform="translate(144, 62) rotate(-4.0)" class="key keypos-1">
<rect rx="6" ry="6" x="-28" y="-26" width="55" height="52" class="key"/>
<text x="0" y="0" class="key tap">
<tspan x="0" dy="-0.6em">PT</tspan><tspan x="0" dy="1.2em">W</tspan>
</text>
</g>
<g transform="translate(212, 28)" class="key keypos-2">
<rect rx="6" ry="6" x="-28" y="-26" width="55" height="52" class="key"/>
<text x="0" y="0" class="key tap">
<tspan x="0" dy="-0.6em">PT</tspan><tspan x="0" dy="1.2em">E</tspan>
</text>
</g>
<g transform="translate(271, 56)" class="key keypos-3">
<rect rx="6" ry="6" x="-28" y="-26" width="55" height="52" class="key"/>
<text x="0" y="0" class="key tap">
<tspan x="0" dy="-0.6em">PT</tspan><tspan x="0" dy="1.2em">R</tspan>
</text>
</g>
<g transform="translate(330, 65)" class="key keypos-4">
<rect rx="6" ry="6" x="-28" y="-26" width="55" height="52" class="key"/>
<text x="0" y="0" class="key tap">
<tspan x="0" dy="-0.6em">PT</tspan><tspan x="0" dy="1.2em">T</tspan>
</text>
</g>
<g transform="translate(520, 65)" class="key keypos-5">
<rect rx="6" ry="6" x="-28" y="-26" width="55" height="52" class="key"/>
<text x="0" y="0" class="key tap">
<tspan x="0" dy="-0.6em">PT</tspan><tspan x="0" dy="1.2em">Y</tspan>
</text>
</g>
<g transform="translate(580, 56)" class="key keypos-6">
<rect rx="6" ry="6" x="-28" y="-26" width="55" height="52" class="key"/>
<text x="0" y="0" class="key tap">
<tspan x="0" dy="-0.6em">PT</tspan><tspan x="0" dy="1.2em">U</tspan>
</text>
</g>
<g transform="translate(639, 28)" class="key keypos-7">
<rect rx="6" ry="6" x="-28" y="-26" width="55" height="52" class="key"/>
<text x="0" y="0" class="key tap">
<tspan x="0" dy="-0.6em">PT</tspan><tspan x="0" dy="1.2em">I</tspan>
</text>
</g>
<g transform="translate(706, 62) rotate(4.0)" class="key keypos-8">
<rect rx="6" ry="6" x="-28" y="-26" width="55" height="52" class="key"/>
<text x="0" y="0" class="key tap">
<tspan x="0" dy="-0.6em">PT</tspan><tspan x="0" dy="1.2em">O</tspan>
</text>
</g>
<g transform="translate(773, 113) rotate(10.0)" class="key keypos-9">
<rect rx="6" ry="6" x="-28" y="-26" width="55" height="52" class="key"/>
<text x="0" y="0" class="key tap">
<tspan x="0" dy="-0.6em">PT</tspan><tspan x="0" dy="1.2em">P</tspan>
</text>
</g>
<g transform="translate(87, 168) rotate(-10.0)" class="key keypos-10">
<rect rx="6" ry="6" x="-28" y="-26" width="55" height="52" class="key"/>
<text x="0" y="0" class="key tap">
<tspan x="0" dy="-1.2em">PT</tspan><tspan x="0" dy="1.2em">A</tspan>
</text>
<text x="0" y="24" class="key hold">LGUI</text>
</g>
<g transform="translate(148, 118) rotate(-4.0)" class="key keypos-11">
<rect rx="6" ry="6" x="-28" y="-26" width="55" height="52" class="key"/>
<text x="0" y="0" class="key tap">
<tspan x="0" dy="-1.2em">PT</tspan><tspan x="0" dy="1.2em">S</tspan>
</text>
<text x="0" y="24" class="key hold">LALT</text>
</g>
<g transform="translate(212, 84)" class="key keypos-12">
<rect rx="6" ry="6" x="-28" y="-26" width="55" height="52" class="key"/>
<text x="0" y="0" class="key tap">
<tspan x="0" dy="-1.2em">PT</tspan><tspan x="0" dy="1.2em">D</tspan>
</text>
<text x="0" y="24" class="key hold">LCTRL</text>
</g>
<g transform="translate(271, 112)" class="key keypos-13">
<rect rx="6" ry="6" x="-28" y="-26" width="55" height="52" class="key"/>
<text x="0" y="0" class="key tap">
<tspan x="0" dy="-1.2em">PT</tspan><tspan x="0" dy="1.2em">F</tspan>
</text>
<text x="0" y="24" class="key hold">LSHIFT</text>
</g>
<g transform="translate(330, 121)" class="key keypos-14">
<rect rx="6" ry="6" x="-28" y="-26" width="55" height="52" class="key"/>
<text x="0" y="0" class="key tap">
<tspan x="0" dy="-0.6em">PT</tspan><tspan x="0" dy="1.2em">G</tspan>
</text>
</g>
<g transform="translate(520, 121)" class="key keypos-15">
<rect rx="6" ry="6" x="-28" y="-26" width="55" height="52" class="key"/>
<text x="0" y="0" class="key tap">
<tspan x="0" dy="-0.6em">PT</tspan><tspan x="0" dy="1.2em">H</tspan>
</text>
</g>
<g transform="translate(580, 112)" class="key keypos-16">
<rect rx="6" ry="6" x="-28" y="-26" width="55" height="52" class="key"/>
<text x="0" y="0" class="key tap">
<tspan x="0" dy="-1.2em">PT</tspan><tspan x="0" dy="1.2em">J</tspan>
</text>
<text x="0" y="24" class="key hold">RSHFT</text>
</g>
<g transform="translate(639, 84)" class="key keypos-17">
<rect rx="6" ry="6" x="-28" y="-26" width="55" height="52" class="key"/>
<text x="0" y="0" class="key tap">
<tspan x="0" dy="-1.2em">PT</tspan><tspan x="0" dy="1.2em">K</tspan>
</text>
<text x="0" y="24" class="key hold">RCTRL</text>
</g>
<g transform="translate(703, 118) rotate(4.0)" class="key keypos-18">
<rect rx="6" ry="6" x="-28" y="-26" width="55" height="52" class="key"/>
<text x="0" y="0" class="key tap">
<tspan x="0" dy="-1.2em">PT</tspan><tspan x="0" dy="1.2em">L</tspan>
</text>
<text x="0" y="24" class="key hold">LALT</text>
</g>
<g transform="translate(764, 168) rotate(10.0)" class="key keypos-19">
<rect rx="6" ry="6" x="-28" y="-26" width="55" height="52" class="key"/>
<text x="0" y="0" class="key tap">
<tspan x="0" dy="-1.2em">PT</tspan><tspan x="0" dy="1.2em">C</tspan><tspan x="0" dy="1.2em">CEDILLA</tspan>
</text>
<text x="0" y="24" class="key hold">RGUI</text>
</g>
<g transform="translate(34, 209) rotate(-10.0)" class="key keypos-20">
<rect rx="6" ry="6" x="-28" y="-26" width="55" height="52" class="key"/>
<text x="0" y="0" class="key tap">ESCAPE</text>
</g>
<g transform="translate(97, 223) rotate(-10.0)" class="key keypos-21">
<rect rx="6" ry="6" x="-28" y="-26" width="55" height="52" class="key"/>
<text x="0" y="0" class="key tap">
<tspan x="0" dy="-0.6em">PT</tspan><tspan x="0" dy="1.2em">Z</tspan>
</text>
</g>
<g transform="translate(152, 174) rotate(-4.0)" class="key keypos-22">
<rect rx="6" ry="6" x="-28" y="-26" width="55" height="52" class="key"/>
<text x="0" y="0" class="key tap">
<tspan x="0" dy="-0.6em">PT</tspan><tspan x="0" dy="1.2em">X</tspan>
</text>
</g>
<g transform="translate(212, 140)" class="key keypos-23">
<rect rx="6" ry="6" x="-28" y="-26" width="55" height="52" class="key"/>
<text x="0" y="0" class="key tap">
<tspan x="0" dy="-0.6em">PT</tspan><tspan x="0" dy="1.2em">C</tspan>
</text>
</g>
<g transform="translate(271, 168)" class="key keypos-24">
<rect rx="6" ry="6" x="-28" y="-26" width="55" height="52" class="key"/>
<text x="0" y="0" class="key tap">
<tspan x="0" dy="-0.6em">PT</tspan><tspan x="0" dy="1.2em">V</tspan>
</text>
</g>
<g transform="translate(330, 177)" class="key keypos-25">
<rect rx="6" ry="6" x="-28" y="-26" width="55" height="52" class="key"/>
<text x="0" y="0" class="key tap">
<tspan x="0" dy="-0.6em">PT</tspan><tspan x="0" dy="1.2em">B</tspan>
</text>
</g>
<g transform="translate(520, 177)" class="key keypos-26">
<rect rx="6" ry="6" x="-28" y="-26" width="55" height="52" class="key"/>
<text x="0" y="0" class="key tap">
<tspan x="0" dy="-0.6em">PT</tspan><tspan x="0" dy="1.2em">N</tspan>
</text>
</g>
<g transform="translate(580, 168)" class="key keypos-27">
<rect rx="6" ry="6" x="-28" y="-26" width="55" height="52" class="key"/>
<text x="0" y="0" class="key tap">
<tspan x="0" dy="-0.6em">PT</tspan><tspan x="0" dy="1.2em">M</tspan>
</text>
</g>
<g transform="translate(639, 140)" class="key keypos-28">
<rect rx="6" ry="6" x="-28" y="-26" width="55" height="52" class="key"/>
<text x="0" y="0" class="key tap">
<tspan x="0" dy="-0.6em">PT</tspan><tspan x="0" dy="1.2em">COMMA</tspan>
</text>
</g>
<g transform="translate(699, 174) rotate(4.0)" class="key keypos-29">
<rect rx="6" ry="6" x="-28" y="-26" width="55" height="52" class="key"/>
<text x="0" y="0" class="key tap">
<tspan x="0" dy="-0.6em">PT</tspan><tspan x="0" dy="1.2em">DOT</tspan>
</text>
</g>
<g transform="translate(754, 223) rotate(10.0)" class="key keypos-30">
<rect rx="6" ry="6" x="-28" y="-26" width="55" height="52" class="key"/>
<text x="0" y="0" class="key tap">
<tspan x="0" dy="-0.6em">PT</tspan><tspan x="0" dy="1.2em">MINUS</tspan>
</text>
</g>
<g transform="translate(817, 209) rotate(10.0)" class="key keypos-31">
<rect rx="6" ry="6" x="-28" y="-26" width="55" height="52" class="key"/>
<text x="0" y="0" class="key tap">
<tspan x="0" dy="-0.6em">PT</tspan><tspan x="0" dy="1.2em">DOT</tspan>
</text>
</g>
<g transform="translate(255, 236)" class="key keypos-32">
<rect rx="6" ry="6" x="-28" y="-26" width="55" height="52" class="key"/>
<text x="0" y="0" class="key tap">TAB</text>
</g>
<g transform="translate(320, 245) rotate(15.0)" class="key keypos-33">
<rect rx="6" ry="6" x="-28" y="-26" width="55" height="52" class="key"/>
<text x="0" y="0" class="key tap">RET</text>
</g>
<g transform="translate(381, 270) rotate(30.0)" class="key keypos-34">
<rect rx="6" ry="6" x="-28" y="-26" width="55" height="52" class="key"/>
<text x="0" y="0" class="key tap">LSHFT</text>
<text x="0" y="24" class="key hold">sticky</text>
</g>
<g transform="translate(470, 270) rotate(-30.0)" class="key keypos-35">
<rect rx="6" ry="6" x="-28" y="-26" width="55" height="52" class="key"/>
<a href="#Num">
<text x="0" y="0" class="key tap layer-activator">Num</text>
</a></g>
<g transform="translate(531, 245) rotate(-15.0)" class="key keypos-36">
<rect rx="6" ry="6" x="-28" y="-26" width="55" height="52" class="key"/>
<text x="0" y="0" class="key tap">SPACE</text>
</g>
<g transform="translate(596, 236)" class="key keypos-37">
<rect rx="6" ry="6" x="-28" y="-26" width="55" height="52" class="key"/>
<text x="0" y="0" class="key tap">BSPC</text>
<text x="0" y="-24" class="key shifted">DEL</text>
</g>
<g class="combo combopos-0">
<rect rx="6" ry="6" x="166" y="88" width="28" height="26" class="combo"/>
<text x="180" y="101" class="combo tap">
<tspan x="180" dy="-0.6em" style="font-size: 88%">PT</tspan><tspan x="180" dy="1.2em" style="font-size: 88%">QUESTION</tspan>
</text>
<text x="180" y="112" class="combo hold"><tspan style="font-size: 88%">Sft+LALT</tspan></text>
<text x="180" y="90" class="combo shifted">PT EXCL</text>
</g>
<g class="combo combopos-1">
<rect rx="6" ry="6" x="228" y="85" width="28" height="26" class="combo"/>
<text x="242" y="98" class="combo tap">
<tspan x="242" dy="-0.6em">PT</tspan><tspan x="242" dy="1.2em">SLASH</tspan>
</text>
<text x="242" y="109" class="combo hold"><tspan style="font-size: 78%">Sft+LCTRL</tspan></text>
<text x="242" y="87" class="combo shifted">PT BSLH</text>
</g>
<g class="combo combopos-2">
<rect rx="6" ry="6" x="168" y="144" width="28" height="26" class="combo"/>
<text x="182" y="157" class="combo tap">
<tspan x="182" dy="-0.6em">Ctl+PT</tspan><tspan x="182" dy="1.2em">C</tspan>
</text>
</g>
<g class="combo combopos-3">
<rect rx="6" ry="6" x="228" y="141" width="28" height="26" class="combo"/>
<text x="242" y="154" class="combo tap">
<tspan x="242" dy="-0.6em">Ctl+PT</tspan><tspan x="242" dy="1.2em">P</tspan>
</text>
</g>
<g class="combo combopos-4">
<rect rx="6" ry="6" x="595" y="85" width="28" height="26" class="combo"/>
<text x="609" y="98" class="combo tap">
<tspan x="609" dy="-0.6em">PT</tspan><tspan x="609" dy="1.2em">LPAR</tspan>
</text>
<text x="609" y="109" class="combo hold"><tspan style="font-size: 78%">Sft+LCTRL</tspan></text>
<text x="609" y="87" class="combo shifted">PT LT</text>
</g>
<g class="combo combopos-5">
<rect rx="6" ry="6" x="657" y="88" width="28" height="26" class="combo"/>
<text x="671" y="101" class="combo tap">
<tspan x="671" dy="-0.6em">PT</tspan><tspan x="671" dy="1.2em">RPAR</tspan>
</text>
<text x="671" y="112" class="combo hold"><tspan style="font-size: 88%">Sft+LALT</tspan></text>
<text x="671" y="90" class="combo shifted">PT GT</text>
</g>
<g class="combo combopos-6">
<rect rx="6" ry="6" x="595" y="141" width="28" height="26" class="combo"/>
<text x="609" y="154" class="combo tap">
<tspan x="609" dy="-0.6em">PT</tspan><tspan x="609" dy="1.2em">LBKT</tspan>
</text>
<text x="609" y="143" class="combo shifted">PT LBRC</text>
</g>
<g class="combo combopos-7">
<rect rx="6" ry="6" x="655" y="144" width="28" height="26" class="combo"/>
<text x="669" y="157" class="combo tap">
<tspan x="669" dy="-0.6em">PT</tspan><tspan x="669" dy="1.2em">RBKT</tspan>
</text>
<text x="669" y="146" class="combo shifted">PT RBRC</text>
</g>
<g class="combo combopos-8">
<rect rx="6" ry="6" x="228" y="29" width="28" height="26" class="combo"/>
<text x="242" y="42" class="combo tap">
<tspan x="242" dy="-0.6em">PT</tspan><tspan x="242" dy="1.2em">DQT</tspan>
</text>
<text x="242" y="31" class="combo shifted">PT SQT</text>
</g>
<g class="combo combopos-9">
<rect rx="6" ry="6" x="164" y="32" width="28" height="26" class="combo"/>
<text x="178" y="45" class="combo tap">
<tspan x="178" dy="-0.6em">PT</tspan><tspan x="178" dy="1.2em">PIPE</tspan>
</text>
<text x="178" y="34" class="combo shifted">PT AMPS</text>
</g>
<g class="combo combopos-10">
<rect rx="6" ry="6" x="536" y="103" width="28" height="26" class="combo"/>
<text x="550" y="116" class="combo tap">
<tspan x="550" dy="-0.6em">PT</tspan><tspan x="550" dy="1.2em">AT</tspan>
</text>
<text x="550" y="105" class="combo shifted">PT HASH</text>
</g>
<g class="combo combopos-11">
<rect rx="6" ry="6" x="536" y="47" width="28" height="26" class="combo"/>
<text x="550" y="60" class="combo tap">
<tspan x="550" dy="-0.6em">PT</tspan><tspan x="550" dy="1.2em">ORDM</tspan>
</text>
</g>
<g class="combo combopos-12">
<rect rx="6" ry="6" x="595" y="29" width="28" height="26" class="combo"/>
<text x="609" y="42" class="combo tap">
<tspan x="609" dy="-0.6em">PT</tspan><tspan x="609" dy="1.2em">TILDE</tspan>
</text>
</g>
<g class="combo combopos-13">
<rect rx="6" ry="6" x="659" y="32" width="28" height="26" class="combo"/>
<text x="673" y="45" class="combo tap"><tspan style="font-size: 70%">&amp;grave_spc</tspan></text>
<text x="673" y="56" class="combo hold"><tspan style="font-size: 88%">PT ACUTE</tspan></text>
</g>
</g>
</g>
<g transform="translate(30, 366)" class="layer-Colemak">
<text x="0" y="28" class="label" id="Colemak">Colemak:</text>
<g transform="translate(0, 56)">
<g transform="translate(78, 113) rotate(-10.0)" class="key keypos-0">
<rect rx="6" ry="6" x="-28" y="-26" width="55" height="52" class="key"/>
<text x="0" y="0" class="key tap">
<tspan x="0" dy="-0.6em">PT</tspan><tspan x="0" dy="1.2em">Q</tspan>
</text>
</g>
<g transform="translate(144, 62) rotate(-4.0)" class="key keypos-1">
<rect rx="6" ry="6" x="-28" y="-26" width="55" height="52" class="key"/>
<text x="0" y="0" class="key tap">
<tspan x="0" dy="-0.6em">PT</tspan><tspan x="0" dy="1.2em">W</tspan>
</text>
</g>
<g transform="translate(212, 28)" class="key keypos-2">
<rect rx="6" ry="6" x="-28" y="-26" width="55" height="52" class="key"/>
<text x="0" y="0" class="key tap">
<tspan x="0" dy="-0.6em">PT</tspan><tspan x="0" dy="1.2em">F</tspan>
</text>
</g>
<g transform="translate(271, 56)" class="key keypos-3">
<rect rx="6" ry="6" x="-28" y="-26" width="55" height="52" class="key"/>
<text x="0" y="0" class="key tap">
<tspan x="0" dy="-0.6em">PT</tspan><tspan x="0" dy="1.2em">P</tspan>
</text>
</g>
<g transform="translate(330, 65)" class="key keypos-4">
<rect rx="6" ry="6" x="-28" y="-26" width="55" height="52" class="key"/>
<text x="0" y="0" class="key tap">
<tspan x="0" dy="-0.6em">PT</tspan><tspan x="0" dy="1.2em">B</tspan>
</text>
</g>
<g transform="translate(520, 65)" class="key keypos-5">
<rect rx="6" ry="6" x="-28" y="-26" width="55" height="52" class="key"/>
<text x="0" y="0" class="key tap">
<tspan x="0" dy="-0.6em">PT</tspan><tspan x="0" dy="1.2em">J</tspan>
</text>
</g>
<g transform="translate(580, 56)" class="key keypos-6">
<rect rx="6" ry="6" x="-28" y="-26" width="55" height="52" class="key"/>
<text x="0" y="0" class="key tap">
<tspan x="0" dy="-0.6em">PT</tspan><tspan x="0" dy="1.2em">L</tspan>
</text>
</g>
<g transform="translate(639, 28)" class="key keypos-7">
<rect rx="6" ry="6" x="-28" y="-26" width="55" height="52" class="key"/>
<text x="0" y="0" class="key tap">
<tspan x="0" dy="-0.6em">PT</tspan><tspan x="0" dy="1.2em">U</tspan>
</text>
</g>
<g transform="translate(706, 62) rotate(4.0)" class="key keypos-8">
<rect rx="6" ry="6" x="-28" y="-26" width="55" height="52" class="key"/>
<text x="0" y="0" class="key tap">
<tspan x="0" dy="-0.6em">PT</tspan><tspan x="0" dy="1.2em">Y</tspan>
</text>
</g>
<g transform="translate(773, 113) rotate(10.0)" class="key keypos-9">
<rect rx="6" ry="6" x="-28" y="-26" width="55" height="52" class="key"/>
<text x="0" y="0" class="key tap">
<tspan x="0" dy="-1.2em">PT</tspan><tspan x="0" dy="1.2em">C</tspan><tspan x="0" dy="1.2em">CEDILLA</tspan>
</text>
</g>
<g transform="translate(87, 168) rotate(-10.0)" class="key keypos-10">
<rect rx="6" ry="6" x="-28" y="-26" width="55" height="52" class="key"/>
<text x="0" y="0" class="key tap">
<tspan x="0" dy="-1.2em">PT</tspan><tspan x="0" dy="1.2em">A</tspan>
</text>
<text x="0" y="24" class="key hold">LGUI</text>
</g>
<g transform="translate(148, 118) rotate(-4.0)" class="key keypos-11">
<rect rx="6" ry="6" x="-28" y="-26" width="55" height="52" class="key"/>
<text x="0" y="0" class="key tap">
<tspan x="0" dy="-1.2em">PT</tspan><tspan x="0" dy="1.2em">R</tspan>
</text>
<text x="0" y="24" class="key hold">LALT</text>
</g>
<g transform="translate(212, 84)" class="key keypos-12">
<rect rx="6" ry="6" x="-28" y="-26" width="55" height="52" class="key"/>
<text x="0" y="0" class="key tap">
<tspan x="0" dy="-1.2em">PT</tspan><tspan x="0" dy="1.2em">S</tspan>
</text>
<text x="0" y="24" class="key hold">LCTRL</text>
</g>
<g transform="translate(271, 112)" class="key keypos-13">
<rect rx="6" ry="6" x="-28" y="-26" width="55" height="52" class="key"/>
<text x="0" y="0" class="key tap">
<tspan x="0" dy="-1.2em">PT</tspan><tspan x="0" dy="1.2em">T</tspan>
</text>
<text x="0" y="24" class="key hold">LSHIFT</text>
</g>
<g transform="translate(330, 121)" class="key keypos-14">
<rect rx="6" ry="6" x="-28" y="-26" width="55" height="52" class="key"/>
<text x="0" y="0" class="key tap">
<tspan x="0" dy="-0.6em">PT</tspan><tspan x="0" dy="1.2em">G</tspan>
</text>
</g>
<g transform="translate(520, 121)" class="key keypos-15">
<rect rx="6" ry="6" x="-28" y="-26" width="55" height="52" class="key"/>
<text x="0" y="0" class="key tap">
<tspan x="0" dy="-0.6em">PT</tspan><tspan x="0" dy="1.2em">M</tspan>
</text>
</g>
<g transform="translate(580, 112)" class="key keypos-16">
<rect rx="6" ry="6" x="-28" y="-26" width="55" height="52" class="key"/>
<text x="0" y="0" class="key tap">
<tspan x="0" dy="-1.2em">PT</tspan><tspan x="0" dy="1.2em">N</tspan>
</text>
<text x="0" y="24" class="key hold">RSHFT</text>
</g>
<g transform="translate(639, 84)" class="key keypos-17">
<rect rx="6" ry="6" x="-28" y="-26" width="55" height="52" class="key"/>
<text x="0" y="0" class="key tap">
<tspan x="0" dy="-1.2em">PT</tspan><tspan x="0" dy="1.2em">E</tspan>
</text>
<text x="0" y="24" class="key hold">RCTRL</text>
</g>
<g transform="translate(703, 118) rotate(4.0)" class="key keypos-18">
<rect rx="6" ry="6" x="-28" y="-26" width="55" height="52" class="key"/>
<text x="0" y="0" class="key tap">
<tspan x="0" dy="-1.2em">PT</tspan><tspan x="0" dy="1.2em">I</tspan>
</text>
<text x="0" y="24" class="key hold">LALT</text>
</g>
<g transform="translate(764, 168) rotate(10.0)" class="key keypos-19">
<rect rx="6" ry="6" x="-28" y="-26" width="55" height="52" class="key"/>
<text x="0" y="0" class="key tap">
<tspan x="0" dy="-1.2em">PT</tspan><tspan x="0" dy="1.2em">O</tspan>
</text>
<text x="0" y="24" class="key hold">RGUI</text>
</g>
<g transform="translate(34, 209) rotate(-10.0)" class="key keypos-20">
<rect rx="6" ry="6" x="-28" y="-26" width="55" height="52" class="key"/>
<text x="0" y="0" class="key tap">ESCAPE</text>
</g>
<g transform="translate(97, 223) rotate(-10.0)" class="key keypos-21">
<rect rx="6" ry="6" x="-28" y="-26" width="55" height="52" class="key"/>
<text x="0" y="0" class="key tap">
<tspan x="0" dy="-0.6em">PT</tspan><tspan x="0" dy="1.2em">Z</tspan>
</text>
</g>
<g transform="translate(152, 174) rotate(-4.0)" class="key keypos-22">
<rect rx="6" ry="6" x="-28" y="-26" width="55" height="52" class="key"/>
<text x="0" y="0" class="key tap">
<tspan x="0" dy="-0.6em">PT</tspan><tspan x="0" dy="1.2em">X</tspan>
</text>
</g>
<g transform="translate(212, 140)" class="key keypos-23">
<rect rx="6" ry="6" x="-28" y="-26" width="55" height="52" class="key"/>
<text x="0" y="0" class="key tap">
<tspan x="0" dy="-0.6em">PT</tspan><tspan x="0" dy="1.2em">C</tspan>
</text>
</g>
<g transform="translate(271, 168)" class="key keypos-24">
<rect rx="6" ry="6" x="-28" y="-26" width="55" height="52" class="key"/>
<text x="0" y="0" class="key tap">
<tspan x="0" dy="-0.6em">PT</tspan><tspan x="0" dy="1.2em">D</tspan>
</text>
</g>
<g transform="translate(330, 177)" class="key keypos-25">
<rect rx="6" ry="6" x="-28" y="-26" width="55" height="52" class="key"/>
<text x="0" y="0" class="key tap">
<tspan x="0" dy="-0.6em">PT</tspan><tspan x="0" dy="1.2em">V</tspan>
</text>
</g>
<g transform="translate(520, 177)" class="key keypos-26">
<rect rx="6" ry="6" x="-28" y="-26" width="55" height="52" class="key"/>
<text x="0" y="0" class="key tap">
<tspan x="0" dy="-0.6em">PT</tspan><tspan x="0" dy="1.2em">K</tspan>
</text>
</g>
<g transform="translate(580, 168)" class="key keypos-27">
<rect rx="6" ry="6" x="-28" y="-26" width="55" height="52" class="key"/>
<text x="0" y="0" class="key tap">
<tspan x="0" dy="-0.6em">PT</tspan><tspan x="0" dy="1.2em">H</tspan>
</text>
</g>
<g transform="translate(639, 140)" class="key keypos-28">
<rect rx="6" ry="6" x="-28" y="-26" width="55" height="52" class="key"/>
<text x="0" y="0" class="key tap">
<tspan x="0" dy="-0.6em">PT</tspan><tspan x="0" dy="1.2em">COMMA</tspan>
</text>
</g>
<g transform="translate(699, 174) rotate(4.0)" class="key keypos-29">
<rect rx="6" ry="6" x="-28" y="-26" width="55" height="52" class="key"/>
<text x="0" y="0" class="key tap">
<tspan x="0" dy="-0.6em">PT</tspan><tspan x="0" dy="1.2em">DOT</tspan>
</text>
</g>
<g transform="translate(754, 223) rotate(10.0)" class="key keypos-30">
<rect rx="6" ry="6" x="-28" y="-26" width="55" height="52" class="key"/>
<text x="0" y="0" class="key tap">
<tspan x="0" dy="-0.6em">PT</tspan><tspan x="0" dy="1.2em">MINUS</tspan>
</text>
</g>
<g transform="translate(817, 209) rotate(10.0)" class="key keypos-31">
<rect rx="6" ry="6" x="-28" y="-26" width="55" height="52" class="key"/>
<text x="0" y="0" class="key tap">&#x27;</text>
</g>
<g transform="translate(255, 236)" class="key keypos-32">
<rect rx="6" ry="6" x="-28" y="-26" width="55" height="52" class="key"/>
<text x="0" y="0" class="key tap">DEL</text>
<text x="0" y="24" class="key hold">LCTRL</text>
</g>
<g transform="translate(320, 245) rotate(15.0)" class="key keypos-33">
<rect rx="6" ry="6" x="-28" y="-26" width="55" height="52" class="key"/>
<text x="0" y="0" class="key tap">RET</text>
<a href="#Num">
<text x="0" y="24" class="key hold layer-activator">Num</text>
</a></g>
<g transform="translate(381, 270) rotate(30.0)" class="key keypos-34">
<rect rx="6" ry="6" x="-28" y="-26" width="55" height="52" class="key"/>
<text x="0" y="0" class="key tap">RET</text>
</g>
<g transform="translate(470, 270) rotate(-30.0)" class="key keypos-35">
<rect rx="6" ry="6" x="-28" y="-26" width="55" height="52" class="key"/>
<text x="0" y="0" class="key tap">SPACE</text>
</g>
<g transform="translate(531, 245) rotate(-15.0)" class="key keypos-36">
<rect rx="6" ry="6" x="-28" y="-26" width="55" height="52" class="key"/>
<text x="0" y="0" class="key tap">SPACE</text>
<a href="#Num">
<text x="0" y="24" class="key hold layer-activator">Num</text>
</a></g>
<g transform="translate(596, 236)" class="key keypos-37">
<rect rx="6" ry="6" x="-28" y="-26" width="55" height="52" class="key"/>
<text x="0" y="0" class="key tap">-</text>
</g>
<g class="combo combopos-0">
<rect rx="6" ry="6" x="166" y="88" width="28" height="26" class="combo"/>
<text x="180" y="101" class="combo tap">
<tspan x="180" dy="-0.6em" style="font-size: 88%">PT</tspan><tspan x="180" dy="1.2em" style="font-size: 88%">QUESTION</tspan>
</text>
<text x="180" y="112" class="combo hold"><tspan style="font-size: 88%">Sft+LALT</tspan></text>
<text x="180" y="90" class="combo shifted">PT EXCL</text>
</g>
<g class="combo combopos-1">
<rect rx="6" ry="6" x="228" y="85" width="28" height="26" class="combo"/>
<text x="242" y="98" class="combo tap">
<tspan x="242" dy="-0.6em">PT</tspan><tspan x="242" dy="1.2em">SLASH</tspan>
</text>
<text x="242" y="109" class="combo hold"><tspan style="font-size: 78%">Sft+LCTRL</tspan></text>
<text x="242" y="87" class="combo shifted">PT BSLH</text>
</g>
<g class="combo combopos-2">
<rect rx="6" ry="6" x="168" y="144" width="28" height="26" class="combo"/>
<text x="182" y="157" class="combo tap">
<tspan x="182" dy="-0.6em">Ctl+PT</tspan><tspan x="182" dy="1.2em">C</tspan>
</text>
</g>
<g class="combo combopos-3">
<rect rx="6" ry="6" x="228" y="141" width="28" height="26" class="combo"/>
<text x="242" y="154" class="combo tap">
<tspan x="242" dy="-0.6em">Ctl+PT</tspan><tspan x="242" dy="1.2em">P</tspan>
</text>
</g>
<g class="combo combopos-4">
<rect rx="6" ry="6" x="595" y="85" width="28" height="26" class="combo"/>
<text x="609" y="98" class="combo tap">
<tspan x="609" dy="-0.6em">PT</tspan><tspan x="609" dy="1.2em">LPAR</tspan>
</text>
<text x="609" y="109" class="combo hold"><tspan style="font-size: 78%">Sft+LCTRL</tspan></text>
<text x="609" y="87" class="combo shifted">PT LT</text>
</g>
<g class="combo combopos-5">
<rect rx="6" ry="6" x="657" y="88" width="28" height="26" class="combo"/>
<text x="671" y="101" class="combo tap">
<tspan x="671" dy="-0.6em">PT</tspan><tspan x="671" dy="1.2em">RPAR</tspan>
</text>
<text x="671" y="112" class="combo hold"><tspan style="font-size: 88%">Sft+LALT</tspan></text>
<text x="671" y="90" class="combo shifted">PT GT</text>
</g>
<g class="combo combopos-6">
<rect rx="6" ry="6" x="595" y="141" width="28" height="26" class="combo"/>
<text x="609" y="154" class="combo tap">
<tspan x="609" dy="-0.6em">PT</tspan><tspan x="609" dy="1.2em">LBKT</tspan>
</text>
<text x="609" y="143" class="combo shifted">PT LBRC</text>
</g>
<g class="combo combopos-7">
<rect rx="6" ry="6" x="655" y="144" width="28" height="26" class="combo"/>
<text x="669" y="157" class="combo tap">
<tspan x="669" dy="-0.6em">PT</tspan><tspan x="669" dy="1.2em">RBKT</tspan>
</text>
<text x="669" y="146" class="combo shifted">PT RBRC</text>
</g>
<g class="combo combopos-8">
<rect rx="6" ry="6" x="228" y="29" width="28" height="26" class="combo"/>
<text x="242" y="42" class="combo tap">
<tspan x="242" dy="-0.6em">PT</tspan><tspan x="242" dy="1.2em">DQT</tspan>
</text>
<text x="242" y="31" class="combo shifted">PT SQT</text>
</g>
<g class="combo combopos-9">
<rect rx="6" ry="6" x="164" y="32" width="28" height="26" class="combo"/>
<text x="178" y="45" class="combo tap">
<tspan x="178" dy="-0.6em">PT</tspan><tspan x="178" dy="1.2em">PIPE</tspan>
</text>
<text x="178" y="34" class="combo shifted">PT AMPS</text>
</g>
<g class="combo combopos-10">
<rect rx="6" ry="6" x="536" y="103" width="28" height="26" class="combo"/>
<text x="550" y="116" class="combo tap">
<tspan x="550" dy="-0.6em">PT</tspan><tspan x="550" dy="1.2em">AT</tspan>
</text>
<text x="550" y="105" class="combo shifted">PT HASH</text>
</g>
<g class="combo combopos-11">
<rect rx="6" ry="6" x="536" y="47" width="28" height="26" class="combo"/>
<text x="550" y="60" class="combo tap">
<tspan x="550" dy="-0.6em">PT</tspan><tspan x="550" dy="1.2em">ORDM</tspan>
</text>
</g>
<g class="combo combopos-12">
<rect rx="6" ry="6" x="595" y="29" width="28" height="26" class="combo"/>
<text x="609" y="42" class="combo tap">
<tspan x="609" dy="-0.6em">PT</tspan><tspan x="609" dy="1.2em">TILDE</tspan>
</text>
</g>
<g class="combo combopos-13">
<rect rx="6" ry="6" x="659" y="32" width="28" height="26" class="combo"/>
<text x="673" y="45" class="combo tap"><tspan style="font-size: 70%">&amp;grave_spc</tspan></text>
<text x="673" y="56" class="combo hold"><tspan style="font-size: 88%">PT ACUTE</tspan></text>
</g>
</g>
</g>
<g transform="translate(30, 731)" class="layer-Num">
<text x="0" y="28" class="label" id="Num">Num:</text>
<g transform="translate(0, 56)">
<g transform="translate(78, 113) rotate(-10.0)" class="key keypos-0">
<rect rx="6" ry="6" x="-28" y="-26" width="55" height="52" class="key"/>
<text x="0" y="0" class="key tap">
<tspan x="0" dy="-0.6em">PT</tspan><tspan x="0" dy="1.2em">SLASH</tspan>
</text>
</g>
<g transform="translate(144, 62) rotate(-4.0)" class="key keypos-1">
<rect rx="6" ry="6" x="-28" y="-26" width="55" height="52" class="key"/>
<text x="0" y="0" class="key tap">
<tspan x="0" dy="-0.6em">PT</tspan><tspan x="0" dy="1.2em">7</tspan>
</text>
</g>
<g transform="translate(212, 28)" class="key keypos-2">
<rect rx="6" ry="6" x="-28" y="-26" width="55" height="52" class="key"/>
<text x="0" y="0" class="key tap">
<tspan x="0" dy="-0.6em">PT</tspan><tspan x="0" dy="1.2em">8</tspan>
</text>
</g>
<g transform="translate(271, 56)" class="key keypos-3">
<rect rx="6" ry="6" x="-28" y="-26" width="55" height="52" class="key"/>
<text x="0" y="0" class="key tap">
<tspan x="0" dy="-0.6em">PT</tspan><tspan x="0" dy="1.2em">9</tspan>
</text>
</g>
<g transform="translate(330, 65)" class="key keypos-4">
<rect rx="6" ry="6" x="-28" y="-26" width="55" height="52" class="key"/>
<text x="0" y="0" class="key tap">
<tspan x="0" dy="-0.6em">PT</tspan><tspan x="0" dy="1.2em">MINUS</tspan>
</text>
</g>
<g transform="translate(520, 65)" class="key keypos-5">
<rect rx="6" ry="6" x="-28" y="-26" width="55" height="52" class="key"/>
</g>
<g transform="translate(580, 56)" class="key keypos-6">
<rect rx="6" ry="6" x="-28" y="-26" width="55" height="52" class="key"/>
<text x="0" y="0" class="key tap">
<tspan x="0" dy="-0.6em">Ctl+PT</tspan><tspan x="0" dy="1.2em">D</tspan>
</text>
</g>
<g transform="translate(639, 28)" class="key keypos-7">
<rect rx="6" ry="6" x="-28" y="-26" width="55" height="52" class="key"/>
<text x="0" y="0" class="key tap">
<tspan x="0" dy="-0.6em">Ctl+PT</tspan><tspan x="0" dy="1.2em">U</tspan>
</text>
</g>
<g transform="translate(706, 62) rotate(4.0)" class="key keypos-8">
<rect rx="6" ry="6" x="-28" y="-26" width="55" height="52" class="key"/>
</g>
<g transform="translate(773, 113) rotate(10.0)" class="key keypos-9">
<rect rx="6" ry="6" x="-28" y="-26" width="55" height="52" class="key"/>
<a href="#Colemak">
<text x="0" y="0" class="key tap layer-activator">Colemak</text>
</a><text x="0" y="24" class="key hold">toggle</text>
</g>
<g transform="translate(87, 168) rotate(-10.0)" class="key keypos-10">
<rect rx="6" ry="6" x="-28" y="-26" width="55" height="52" class="key"/>
<text x="0" y="0" class="key tap">
<tspan x="0" dy="-0.6em" style="font-size: 88%">PT</tspan><tspan x="0" dy="1.2em" style="font-size: 88%">ASTERISK</tspan>
</text>
</g>
<g transform="translate(148, 118) rotate(-4.0)" class="key keypos-11">
<rect rx="6" ry="6" x="-28" y="-26" width="55" height="52" class="key"/>
<text x="0" y="0" class="key tap">
<tspan x="0" dy="-0.6em">PT</tspan><tspan x="0" dy="1.2em">4</tspan>
</text>
</g>
<g transform="translate(212, 84)" class="key keypos-12">
<rect rx="6" ry="6" x="-28" y="-26" width="55" height="52" class="key"/>
<text x="0" y="0" class="key tap">
<tspan x="0" dy="-0.6em">PT</tspan><tspan x="0" dy="1.2em">5</tspan>
</text>
</g>
<g transform="translate(271, 112)" class="key keypos-13">
<rect rx="6" ry="6" x="-28" y="-26" width="55" height="52" class="key"/>
<text x="0" y="0" class="key tap">
<tspan x="0" dy="-0.6em">PT</tspan><tspan x="0" dy="1.2em">6</tspan>
</text>
</g>
<g transform="translate(330, 121)" class="key keypos-14">
<rect rx="6" ry="6" x="-28" y="-26" width="55" height="52" class="key"/>
<text x="0" y="0" class="key tap">
<tspan x="0" dy="-0.6em">PT</tspan><tspan x="0" dy="1.2em">PLUS</tspan>
</text>
</g>
<g transform="translate(520, 121)" class="key keypos-15">
<rect rx="6" ry="6" x="-28" y="-26" width="55" height="52" class="key"/>
<text x="0" y="0" class="key tap">LEFT</text>
</g>
<g transform="translate(580, 112)" class="key keypos-16">
<rect rx="6" ry="6" x="-28" y="-26" width="55" height="52" class="key"/>
<text x="0" y="0" class="key tap">DOWN</text>
</g>
<g transform="translate(639, 84)" class="key keypos-17">
<rect rx="6" ry="6" x="-28" y="-26" width="55" height="52" class="key"/>
<text x="0" y="0" class="key tap">UP</text>
</g>
<g transform="translate(703, 118) rotate(4.0)" class="key keypos-18">
<rect rx="6" ry="6" x="-28" y="-26" width="55" height="52" class="key"/>
<text x="0" y="0" class="key tap">RIGHT</text>
</g>
<g transform="translate(764, 168) rotate(10.0)" class="key keypos-19">
<rect rx="6" ry="6" x="-28" y="-26" width="55" height="52" class="key"/>
</g>
<g transform="translate(34, 209) rotate(-10.0)" class="key keypos-20">
<rect rx="6" ry="6" x="-28" y="-26" width="55" height="52" class="key"/>
<text x="0" y="0" class="key tap">ESCAPE</text>
</g>
<g transform="translate(97, 223) rotate(-10.0)" class="key keypos-21">
<rect rx="6" ry="6" x="-28" y="-26" width="55" height="52" class="key"/>
<text x="0" y="0" class="key tap">
<tspan x="0" dy="-0.6em">PT</tspan><tspan x="0" dy="1.2em">COMMA</tspan>
</text>
</g>
<g transform="translate(152, 174) rotate(-4.0)" class="key keypos-22">
<rect rx="6" ry="6" x="-28" y="-26" width="55" height="52" class="key"/>
<text x="0" y="0" class="key tap">
<tspan x="0" dy="-0.6em">PT</tspan><tspan x="0" dy="1.2em">1</tspan>
</text>
</g>
<g transform="translate(212, 140)" class="key keypos-23">
<rect rx="6" ry="6" x="-28" y="-26" width="55" height="52" class="key"/>
<text x="0" y="0" class="key tap">
<tspan x="0" dy="-0.6em">PT</tspan><tspan x="0" dy="1.2em">2</tspan>
</text>
</g>
<g transform="translate(271, 168)" class="key keypos-24">
<rect rx="6" ry="6" x="-28" y="-26" width="55" height="52" class="key"/>
<text x="0" y="0" class="key tap">
<tspan x="0" dy="-0.6em">PT</tspan><tspan x="0" dy="1.2em">3</tspan>
</text>
</g>
<g transform="translate(330, 177)" class="key keypos-25">
<rect rx="6" ry="6" x="-28" y="-26" width="55" height="52" class="key"/>
<text x="0" y="0" class="key tap">
<tspan x="0" dy="-0.6em">PT</tspan><tspan x="0" dy="1.2em">EQUAL</tspan>
</text>
</g>
<g transform="translate(520, 177)" class="key keypos-26">
<rect rx="6" ry="6" x="-28" y="-26" width="55" height="52" class="key"/>
<text x="0" y="0" class="key tap">
<tspan x="0" dy="-0.6em">PT</tspan><tspan x="0" dy="1.2em">N</tspan>
</text>
</g>
<g transform="translate(580, 168)" class="key keypos-27">
<rect rx="6" ry="6" x="-28" y="-26" width="55" height="52" class="key"/>
<text x="0" y="0" class="key tap">LSHIFT</text>
<text x="0" y="24" class="key hold">sticky</text>
</g>
<g transform="translate(639, 140)" class="key keypos-28">
<rect rx="6" ry="6" x="-28" y="-26" width="55" height="52" class="key"/>
<text x="0" y="0" class="key tap">RCTRL</text>
<text x="0" y="24" class="key hold">sticky</text>
</g>
<g transform="translate(699, 174) rotate(4.0)" class="key keypos-29">
<rect rx="6" ry="6" x="-28" y="-26" width="55" height="52" class="key"/>
<text x="0" y="0" class="key tap">RALT</text>
<text x="0" y="24" class="key hold">sticky</text>
</g>
<g transform="translate(754, 223) rotate(10.0)" class="key keypos-30">
<rect rx="6" ry="6" x="-28" y="-26" width="55" height="52" class="key"/>
<text x="0" y="0" class="key tap">RGUI</text>
<text x="0" y="24" class="key hold">sticky</text>
</g>
<g transform="translate(817, 209) rotate(10.0)" class="key keypos-31">
<rect rx="6" ry="6" x="-28" y="-26" width="55" height="52" class="key"/>
</g>
<g transform="translate(255, 236)" class="key keypos-32">
<rect rx="6" ry="6" x="-28" y="-26" width="55" height="52" class="key"/>
<text x="0" y="0" class="key tap">
<tspan x="0" dy="-0.6em">PT</tspan><tspan x="0" dy="1.2em">DOT</tspan>
</text>
</g>
<g transform="translate(320, 245) rotate(15.0)" class="key keypos-33">
<rect rx="6" ry="6" x="-28" y="-26" width="55" height="52" class="key"/>
<text x="0" y="0" class="key tap">
<tspan x="0" dy="-0.6em">PT</tspan><tspan x="0" dy="1.2em">0</tspan>
</text>
</g>
<g transform="translate(381, 270) rotate(30.0)" class="key keypos-34">
<rect rx="6" ry="6" x="-28" y="-26" width="55" height="52" class="key"/>
<text x="0" y="0" class="key tap">RET</text>
</g>
<g transform="translate(470, 270) rotate(-30.0)" class="key held keypos-35">
<rect rx="6" ry="6" x="-28" y="-26" width="55" height="52" class="key held"/>
<text x="0" y="0" class="key held tap">SPACE</text>
</g>
<g transform="translate(531, 245) rotate(-15.0)" class="key keypos-36">
<rect rx="6" ry="6" x="-28" y="-26" width="55" height="52" class="key"/>
<text x="0" y="0" class="key tap">SPACE</text>
<a href="#Num">
<text x="0" y="24" class="key hold layer-activator">Num</text>
</a></g>
<g transform="translate(596, 236)" class="key keypos-37">
<rect rx="6" ry="6" x="-28" y="-26" width="55" height="52" class="key"/>
<text x="0" y="0" class="key tap">-</text>
</g>
<g class="combo combopos-0">
<rect rx="6" ry="6" x="166" y="88" width="28" height="26" class="combo"/>
<text x="180" y="101" class="combo tap">
<tspan x="180" dy="-0.6em" style="font-size: 88%">PT</tspan><tspan x="180" dy="1.2em" style="font-size: 88%">QUESTION</tspan>
</text>
<text x="180" y="112" class="combo hold"><tspan style="font-size: 88%">Sft+LALT</tspan></text>
<text x="180" y="90" class="combo shifted">PT EXCL</text>
</g>
<g class="combo combopos-1">
<rect rx="6" ry="6" x="228" y="85" width="28" height="26" class="combo"/>
<text x="242" y="98" class="combo tap">
<tspan x="242" dy="-0.6em">PT</tspan><tspan x="242" dy="1.2em">SLASH</tspan>
</text>
<text x="242" y="109" class="combo hold"><tspan style="font-size: 78%">Sft+LCTRL</tspan></text>
<text x="242" y="87" class="combo shifted">PT BSLH</text>
</g>
<g class="combo combopos-2">
<rect rx="6" ry="6" x="168" y="144" width="28" height="26" class="combo"/>
<text x="182" y="157" class="combo tap">
<tspan x="182" dy="-0.6em">Ctl+PT</tspan><tspan x="182" dy="1.2em">C</tspan>
</text>
</g>
<g class="combo combopos-3">
<rect rx="6" ry="6" x="228" y="141" width="28" height="26" class="combo"/>
<text x="242" y="154" class="combo tap">
<tspan x="242" dy="-0.6em">Ctl+PT</tspan><tspan x="242" dy="1.2em">P</tspan>
</text>
</g>
<g class="combo combopos-4">
<rect rx="6" ry="6" x="595" y="85" width="28" height="26" class="combo"/>
<text x="609" y="98" class="combo tap">
<tspan x="609" dy="-0.6em">PT</tspan><tspan x="609" dy="1.2em">LPAR</tspan>
</text>
<text x="609" y="109" class="combo hold"><tspan style="font-size: 78%">Sft+LCTRL</tspan></text>
<text x="609" y="87" class="combo shifted">PT LT</text>
</g>
<g class="combo combopos-5">
<rect rx="6" ry="6" x="657" y="88" width="28" height="26" class="combo"/>
<text x="671" y="101" class="combo tap">
<tspan x="671" dy="-0.6em">PT</tspan><tspan x="671" dy="1.2em">RPAR</tspan>
</text>
<text x="671" y="112" class="combo hold"><tspan style="font-size: 88%">Sft+LALT</tspan></text>
<text x="671" y="90" class="combo shifted">PT GT</text>
</g>
<g class="combo combopos-6">
<rect rx="6" ry="6" x="595" y="141" width="28" height="26" class="combo"/>
<text x="609" y="154" class="combo tap">
<tspan x="609" dy="-0.6em">PT</tspan><tspan x="609" dy="1.2em">LBKT</tspan>
</text>
<text x="609" y="143" class="combo shifted">PT LBRC</text>
</g>
<g class="combo combopos-7">
<rect rx="6" ry="6" x="655" y="144" width="28" height="26" class="combo"/>
<text x="669" y="157" class="combo tap">
<tspan x="669" dy="-0.6em">PT</tspan><tspan x="669" dy="1.2em">RBKT</tspan>
</text>
<text x="669" y="146" class="combo shifted">PT RBRC</text>
</g>
<g class="combo combopos-8">
<rect rx="6" ry="6" x="228" y="29" width="28" height="26" class="combo"/>
<text x="242" y="42" class="combo tap">
<tspan x="242" dy="-0.6em">PT</tspan><tspan x="242" dy="1.2em">DQT</tspan>
</text>
<text x="242" y="31" class="combo shifted">PT SQT</text>
</g>
<g class="combo combopos-9">
<rect rx="6" ry="6" x="164" y="32" width="28" height="26" class="combo"/>
<text x="178" y="45" class="combo tap">
<tspan x="178" dy="-0.6em">PT</tspan><tspan x="178" dy="1.2em">PIPE</tspan>
</text>
<text x="178" y="34" class="combo shifted">PT AMPS</text>
</g>
<g class="combo combopos-10">
<rect rx="6" ry="6" x="536" y="103" width="28" height="26" class="combo"/>
<text x="550" y="116" class="combo tap">
<tspan x="550" dy="-0.6em">PT</tspan><tspan x="550" dy="1.2em">AT</tspan>
</text>
<text x="550" y="105" class="combo shifted">PT HASH</text>
</g>
<g class="combo combopos-11">
<rect rx="6" ry="6" x="536" y="47" width="28" height="26" class="combo"/>
<text x="550" y="60" class="combo tap">
<tspan x="550" dy="-0.6em">PT</tspan><tspan x="550" dy="1.2em">ORDM</tspan>
</text>
</g>
<g class="combo combopos-12">
<rect rx="6" ry="6" x="595" y="29" width="28" height="26" class="combo"/>
<text x="609" y="42" class="combo tap">
<tspan x="609" dy="-0.6em">PT</tspan><tspan x="609" dy="1.2em">TILDE</tspan>
</text>
</g>
<g class="combo combopos-13">
<rect rx="6" ry="6" x="659" y="32" width="28" height="26" class="combo"/>
<text x="673" y="45" class="combo tap"><tspan style="font-size: 70%">&amp;grave_spc</tspan></text>
<text x="673" y="56" class="combo hold"><tspan style="font-size: 88%">PT ACUTE</tspan></text>
</g>
</g>
</g>
</svg>
